<svg width="1041" height="552" viewBox="0 0 1041 552" fill="none" xmlns="http://www.w3.org/2000/svg">
<rect x="12" y="12" width="1017" height="528" rx="264" stroke="#949494" stroke-width="24"/>
<path d="M782 122C867.052 122 936 190.948 936 276C936 361.052 867.052 430 782 430C696.948 430 628 361.052 628 276C628 190.948 696.948 122 782 122ZM826.359 175.641C820.227 173.128 813.218 176.062 810.705 182.194C808.193 188.327 811.127 195.335 817.259 197.848C836.288 205.645 851.844 219.475 861.397 236.908C870.945 254.331 873.948 274.341 869.95 293.596C865.951 312.857 855.163 330.297 839.288 342.928C823.404 355.565 803.417 362.594 782.686 362.746C761.954 362.898 741.854 356.163 725.769 343.757C709.692 331.357 698.628 314.072 694.324 294.869C690.022 275.673 692.711 255.623 701.979 238.066C711.254 220.5 726.587 206.447 745.486 198.373C751.58 195.769 754.411 188.718 751.808 182.624C749.204 176.53 742.152 173.699 736.058 176.303C712.229 186.482 692.666 204.302 680.756 226.861C668.84 249.432 665.346 275.313 670.905 300.118C676.463 324.917 690.703 347.02 711.11 362.761C731.509 378.494 756.85 386.937 782.861 386.746C808.873 386.555 834.079 377.743 854.231 361.709C874.392 345.668 888.283 323.354 893.449 298.475C898.616 273.589 894.713 247.764 882.444 225.375C870.181 202.997 850.343 185.469 826.359 175.641ZM781.562 162.61C775.487 162.61 770.562 167.536 770.562 173.611V281.611C770.563 287.686 775.488 292.611 781.562 292.611C787.637 292.611 792.562 287.686 792.562 281.611V173.611C792.562 167.536 787.637 162.611 781.562 162.61Z" fill="#00BD55"/>
<path d="M319.426 276.091C319.426 295.267 315.964 311.839 309.039 325.807C302.114 339.775 292.615 350.546 280.541 358.122C268.467 365.698 254.677 369.486 239.17 369.486C223.664 369.486 209.874 365.698 197.8 358.122C185.726 350.546 176.227 339.775 169.302 325.807C162.377 311.839 158.915 295.267 158.915 276.091C158.915 256.915 162.377 240.343 169.302 226.375C176.227 212.407 185.726 201.635 197.8 194.06C209.874 186.484 223.664 182.696 239.17 182.696C254.677 182.696 268.467 186.484 280.541 194.06C292.615 201.635 302.114 212.407 309.039 226.375C315.964 240.343 319.426 256.915 319.426 276.091ZM298.119 276.091C298.119 260.348 295.486 247.06 290.218 236.229C285.01 225.398 277.937 217.201 269 211.638C260.122 206.074 250.179 203.293 239.17 203.293C228.162 203.293 218.189 206.074 209.252 211.638C200.374 217.201 193.302 225.398 188.034 236.229C182.826 247.06 180.222 260.348 180.222 276.091C180.222 291.834 182.826 305.121 188.034 315.952C193.302 326.783 200.374 334.981 209.252 340.544C218.189 346.107 228.162 348.889 239.17 348.889C250.179 348.889 260.122 346.107 269 340.544C277.937 334.981 285.01 326.783 290.218 315.952C295.486 305.121 298.119 291.834 298.119 276.091ZM500.623 185.182V367H479.316L380.239 224.244H378.464V367H356.447V185.182H377.754L477.185 328.293H478.961V185.182H500.623Z" fill="#00BD55"/>
</svg>
