<svg width="1011" height="996" viewBox="0 0 1011 996" fill="none" xmlns="http://www.w3.org/2000/svg">
<path d="M505.292 302C613.22 302 700.792 389.708 700.792 498C700.792 606.292 613.22 694 505.292 694C397.364 694 309.792 606.292 309.792 498C309.792 389.708 397.364 302 505.292 302Z" stroke="white" stroke-width="40"/>
<path d="M485.173 195.186C495.18 208.215 514.82 208.215 524.827 195.186L601.408 95.4782C614.037 79.0352 602.315 55.25 581.581 55.25H428.419C407.685 55.25 395.963 79.0351 408.592 95.4782L485.173 195.186Z" fill="white"/>
<path d="M524.827 800.814C514.82 787.785 495.18 787.785 485.173 800.814L408.592 900.522C395.963 916.965 407.685 940.75 428.419 940.75L581.581 940.75C602.315 940.75 614.037 916.965 601.408 900.522L524.827 800.814Z" fill="white"/>
<path d="M757.871 329.299C751.616 344.466 761.419 361.445 777.681 363.612L902.147 380.195C922.711 382.935 937.472 360.88 927.099 342.914L850.505 210.248C840.132 192.282 813.652 194.038 805.742 213.217L757.871 329.299Z" fill="white"/>
<path d="M252.713 666.701C258.968 651.534 249.165 634.555 232.903 632.388L108.437 615.805C87.8728 613.065 73.1117 635.12 83.4847 653.086L160.079 785.752C170.452 803.718 196.932 801.962 204.842 782.783L252.713 666.701Z" fill="white"/>
<path d="M777.681 632.389C761.418 634.556 751.616 651.534 757.87 666.701L805.742 782.783C813.651 801.963 840.131 803.719 850.504 785.752L927.099 653.087C937.472 635.12 922.711 613.066 902.147 615.806L777.681 632.389Z" fill="white"/>
<path d="M232.903 363.611C249.166 361.444 258.968 344.466 252.714 329.299L204.842 213.217C196.933 194.037 170.453 192.281 160.08 210.248L83.4851 342.913C73.1121 360.88 87.8732 382.934 108.437 380.194L232.903 363.611Z" fill="white"/>
</svg>
