<svg width="1041" height="552" viewBox="0 0 1041 552" fill="none" xmlns="http://www.w3.org/2000/svg">
<rect x="12" y="12" width="1017" height="528" rx="264" stroke="#949494" stroke-width="24"/>
<circle cx="223" cy="276" r="144" stroke="#949494" stroke-width="20"/>
<path d="M631.539 276.091C631.539 295.267 628.077 311.839 621.152 325.807C614.228 339.775 604.728 350.546 592.654 358.122C580.581 365.698 566.79 369.486 551.284 369.486C535.777 369.486 521.987 365.698 509.913 358.122C497.839 350.546 488.34 339.775 481.415 325.807C474.49 311.839 471.028 295.267 471.028 276.091C471.028 256.915 474.49 240.343 481.415 226.375C488.34 212.407 497.839 201.635 509.913 194.06C521.987 186.484 535.777 182.696 551.284 182.696C566.79 182.696 580.581 186.484 592.654 194.06C604.728 201.635 614.228 212.407 621.152 226.375C628.077 240.343 631.539 256.915 631.539 276.091ZM610.233 276.091C610.233 260.348 607.599 247.06 602.331 236.229C597.123 225.398 590.05 217.201 581.113 211.638C572.235 206.074 562.292 203.293 551.284 203.293C540.275 203.293 530.302 206.074 521.365 211.638C512.488 217.201 505.415 225.398 500.147 236.229C494.939 247.06 492.335 260.348 492.335 276.091C492.335 291.834 494.939 305.121 500.147 315.952C505.415 326.783 512.488 334.981 521.365 340.544C530.302 346.107 540.275 348.889 551.284 348.889C562.292 348.889 572.235 346.107 581.113 340.544C590.05 334.981 597.123 326.783 602.331 315.952C607.599 305.121 610.233 291.834 610.233 276.091ZM668.56 367V185.182H777.58V204.713H690.577V266.148H769.412V285.679H690.577V367H668.56ZM815.289 367V185.182H924.308V204.713H837.306V266.148H916.141V285.679H837.306V367H815.289Z" fill="white"/>
</svg>
