<svg width="1041" height="552" viewBox="0 0 1041 552" fill="none" xmlns="http://www.w3.org/2000/svg">
<rect x="12" y="12" width="1017" height="528" rx="264" stroke="#949494" stroke-width="24"/>
<g clip-path="url(#clip0_45_1010)">
<path d="M479.563 276.5C479.563 237.669 511.127 206.104 549.959 206.104H640.792V162.958H549.959C487.284 162.958 436.417 213.825 436.417 276.5C436.417 339.175 487.284 390.042 549.959 390.042H640.792V346.896H549.959C511.127 346.896 479.563 315.331 479.563 276.5ZM572.667 299.208H754.334V253.792H572.667V299.208ZM777.042 162.958H686.209V206.104H777.042C815.873 206.104 847.438 237.669 847.438 276.5C847.438 315.331 815.873 346.896 777.042 346.896H686.209V390.042H777.042C839.717 390.042 890.584 339.175 890.584 276.5C890.584 213.825 839.717 162.958 777.042 162.958Z" fill="#00BD55"/>
</g>
<defs>
<clipPath id="clip0_45_1010">
<rect width="545" height="545" fill="white" transform="translate(391 4)"/>
</clipPath>
</defs>
</svg>
