<svg width="1041" height="552" viewBox="0 0 1041 552" fill="none" xmlns="http://www.w3.org/2000/svg">
<rect x="12" y="12" width="1017" height="528" rx="264" stroke="#949494" stroke-width="24"/>
<path d="M480.292 161.708H388.459V205.329H480.292C519.551 205.329 551.463 237.241 551.463 276.5C551.463 309.33 528.964 336.88 498.429 344.916L531.948 378.435C569.37 359.38 595.084 321.269 595.084 276.5C595.084 213.135 543.657 161.708 480.292 161.708ZM457.334 253.542H407.055L452.972 299.458H457.334V253.542ZM135.917 99.0321L207.317 170.433C165.533 187.422 135.917 228.517 135.917 276.5C135.917 339.865 187.344 391.292 250.709 391.292H342.542V347.671H250.709C211.45 347.671 179.538 315.759 179.538 276.5C179.538 239.996 207.317 209.921 242.903 206.018L290.427 253.542H273.667V299.458H336.343L388.459 351.574V391.292H428.177L520.239 483.125L549.167 454.198L165.074 69.875L135.917 99.0321Z" fill="white"/>
</svg>
