<svg width="865" height="991" viewBox="0 0 865 991" fill="none" xmlns="http://www.w3.org/2000/svg">
<path d="M540.546 824.683C550.727 832.601 554.087 848.055 545.07 859.769L452.104 980.534C442.097 993.534 422.491 993.534 412.483 980.534L319.519 859.769C310.553 848.122 313.823 832.778 323.867 824.819C357.896 835.969 394.244 842 432 842C469.909 842 506.398 835.919 540.546 824.683ZM60.2402 579.852C65.7791 566.421 80.4239 561.536 92.2676 565.983C107.667 640.064 146.686 705.487 201.095 754.023C199.188 766.666 187.554 777.121 173.016 775.185L21.9463 755.058C5.68411 752.891 -4.11879 735.912 2.13574 720.745L60.2402 579.852ZM771.679 566.235C783.63 561.362 798.708 566.177 804.348 579.852L862.452 720.745C868.707 735.912 858.904 752.891 842.642 755.058L691.572 775.185C676.855 777.145 665.113 766.408 663.426 753.558C717.501 705.124 756.293 639.976 771.679 566.235ZM173.016 215.347C187.375 213.434 198.902 223.61 201.021 236.042C146.51 284.697 107.458 350.308 92.1484 424.591C80.3257 428.961 65.7606 424.066 60.2402 410.68L2.13574 269.786C-4.11859 254.619 5.68424 237.641 21.9463 235.475L173.016 215.347ZM663.492 236.502C665.402 223.862 677.036 213.41 691.572 215.347L842.642 235.475C858.903 237.642 868.706 254.62 862.452 269.786L804.348 410.68C798.727 424.308 783.731 429.136 771.799 424.344C756.502 350.396 717.674 285.056 663.492 236.502ZM412.482 9.99609C422.49 -3.00389 442.096 -3.00403 452.104 9.99609L545.068 130.762C553.944 142.292 550.829 157.448 541.019 165.472C506.735 154.136 470.084 148 432 148C394.072 148 357.564 154.086 323.401 165.333C313.722 157.275 310.691 142.227 319.517 130.762L412.482 9.99609Z" fill="white"/>
<circle cx="432.294" cy="495.262" r="251.5" fill="#D9D9D9"/>
</svg>
